<svg xmlns="http://www.w3.org/2000/svg" xml:space="preserve" style="fill-rule:evenodd;clip-rule:evenodd;stroke-linecap:round;stroke-linejoin:round;stroke-miterlimit:1.5" viewBox="0 0 1280 720"><path d="M1257.532 211.638v273.915c0 33.385-27.97 60.49-62.421 60.49H217.655c-34.451 0-62.421-27.105-62.421-60.49V211.638c0-33.385 27.97-60.489 62.421-60.489h977.456c34.451 0 62.421 27.104 62.421 60.489" style="fill:#262626" transform="matrix(1.01815 0 0 1.05066 -79.2 -6.257)"/><path d="M1257.532 206.149v284.894c0 30.355-24.645 55-55 55H210.234c-30.355 0-55-24.645-55-55V206.149c0-30.355 24.645-55 55-55h992.298c30.355 0 55 24.645 55 55" style="fill:#262626;stroke:#fd2b27;stroke-width:6.4px" transform="translate(-66.383 11.404)"/><g transform="translate(783.268 181.951)scale(.28625)"><clipPath id="a"><path d="M0 0h1244v1244H0z"/></clipPath><g clip-path="url(#a)"><g transform="translate(-283 -318)"><circle cx="905" cy="940" r="270" style="fill:none;stroke:#ff402e;stroke-opacity:.55;stroke-width:4px;stroke-linecap:butt;stroke-linejoin:miter;stroke-miterlimit:4"/><circle cx="905" cy="940" r="270" style="fill:none;stroke:#fff;stroke-opacity:.4;stroke-width:4px;stroke-linecap:butt;stroke-linejoin:miter;stroke-miterlimit:4"/><circle cx="905" cy="940" r="270" style="fill:none;stroke:#ff402e;stroke-opacity:.35;stroke-width:4px;stroke-linecap:butt;stroke-linejoin:miter;stroke-miterlimit:4"/><circle cx="905" cy="940" r="270" style="fill:none;stroke:#fff;stroke-opacity:.25;stroke-width:4px;stroke-linecap:butt;stroke-linejoin:miter;stroke-miterlimit:4"/><circle cx="905" cy="940" r="270" style="fill:none;stroke:#ff402e;stroke-opacity:.18;stroke-width:4px;stroke-linecap:butt;stroke-linejoin:miter;stroke-miterlimit:4"/></g><path d="M1245.56 568.13c56.82 56.72 102.41 116.25 127.32 182.62 2.75 7.33 8.59 13 16.42 12.61l80.11-4c39.8-1.99 51.06-40.98 34.84-74.92-38.02-79.52-101.87-164.42-163.39-228.28-16.21-16.82-39.1-13.98-50.79 6.25l-48.97 84.69c-3.98 6.89-1.17 15.42 4.46 21.04z" style="fill:#ff402e;fill-rule:nonzero;stroke:#511e1e;stroke-width:6px;stroke-linecap:butt;stroke-linejoin:miter;stroke-miterlimit:10" transform="translate(-283 -318)"/><path d="m1404.78 534.78-14.64-19.12L1282.31 601l13.89 16.76" style="fill:url(#b);fill-rule:nonzero" transform="translate(-283 -318)"/><path d="m1470.87 629.94-11.96-19.98-111.7 78.87 10.41 18.83" style="fill:url(#c);fill-rule:nonzero" transform="translate(-283 -318)"/><path d="M1185.26 911.66c-3.15-97.5-76.49-186.67-148.46-219.06-3.22-1.45-3.37-5.95-.25-7.61l72.92-38.78c12.5-8.18 29.41-6.27 40.77 4.75 45.77 44.4 84.83 95.14 113.85 158.5 6.32 13.81 3.05 29.59-7.6 38.85-2.88 2.51-5.56 5.24-8.2 8l-55.73 58.15c-2.6 2.72-7.17.95-7.3-2.81z" style="fill:#fd2b27;fill-rule:nonzero;stroke:#511e1e;stroke-width:3px;stroke-linecap:butt;stroke-linejoin:miter;stroke-miterlimit:10" transform="translate(-283 -318)"/><path d="M1278.43 811.29c-14.72-44.68-85.11-138.75-127.13-174.73-6.26-5.36-4.92-15.39 2.56-18.84l56.8-26.24c11.31-7.4 26.6-5.67 36.88 4.3 41.4 40.16 76.74 86.06 102.99 143.38 6.1 13.33 2.32 28.68-8.89 36.74l-44.96 40.28c-6.07 5.43-15.69 2.84-18.24-4.89z" style="fill:#fd2b27;fill-rule:nonzero;stroke:#511e1e;stroke-width:3px;stroke-linecap:butt;stroke-linejoin:miter;stroke-miterlimit:10" transform="translate(-283 -318)"/><path d="m528.33 936.91-129.74 62.52c-15.05 7.25-32.88-1.06-37.23-17.19-21.19-78.63 16.06-164.68 91.85-201.21 85.51-41.21 189.79-4.76 231 80.76 41.21 85.51 4.76 189.79-80.76 231-60.32 29.07-131.45 20.2-182.64-20.31-12.98-10.28-13.37-29.86-.91-40.76l108.42-94.8z" style="fill:#fd2b27;fill-rule:nonzero;stroke:#511e1e;stroke-width:6px;stroke-linecap:butt;stroke-miterlimit:4" transform="translate(-283 -318)"/><g transform="translate(-283 -318)"><circle cx="1145.28" cy="1143.86" r="27.29" style="fill:#fd2b27;stroke:#511e1e;stroke-width:6px;stroke-linecap:butt;stroke-linejoin:miter;stroke-miterlimit:4"/><circle cx="1192.56" cy="1086.3" r="27.29" style="fill:#fd2b27;stroke:#511e1e;stroke-width:6px;stroke-linecap:butt;stroke-linejoin:miter;stroke-miterlimit:4"/><circle cx="1213.04" cy="1015.82" r="27.29" style="fill:#fd2b27;stroke:#511e1e;stroke-width:6px;stroke-linecap:butt;stroke-linejoin:miter;stroke-miterlimit:4"/></g><circle cx="905.71" cy="940.82" r="271.17" style="fill:#ff402e;stroke:#511e1e;stroke-width:6px;stroke-linecap:butt;stroke-linejoin:miter;stroke-miterlimit:10" transform="translate(-283 -318)"/><path d="M768.53 763.38c-4.29 0-8.54-1.83-11.51-5.37-17.08-20.4-28.12-41.27-32.83-62.02-4.31-18.99-3.38-37.97 2.75-56.42 11.43-34.39 38.76-60.09 59.68-75.6 22.63-16.77 47.31-28.59 60.01-31.59 8.06-1.91 16.14 3.08 18.05 11.15 1.91 8.06-3.08 16.14-11.15 18.05-18.07 4.27-81.92 38.7-98.12 87.45-9.52 28.64-1.24 58.83 24.62 89.72 5.32 6.35 4.48 15.81-1.88 21.13-2.81 2.35-6.22 3.5-9.62 3.5Z" style="fill:url(#d);fill-rule:nonzero;stroke:#511e1e;stroke-width:6px;stroke-linecap:butt;stroke-linejoin:miter;stroke-miterlimit:10" transform="translate(-283 -318)"/><path d="M916.22 766.69c-4.1 0-8.19-1.67-11.15-4.96-31.62-35.11-44.56-69.74-38.44-102.95 11.36-61.63 85.44-99.56 125.24-119.94l3.62-1.86c7.37-3.78 16.41-.88 20.19 6.49s.88 16.41-6.49 20.19l-3.65 1.87c-35.2 18.02-100.73 51.57-109.41 98.67-4.34 23.56 6.16 49.61 31.23 77.43 5.54 6.16 5.05 15.64-1.11 21.18a14.96 14.96 0 0 1-10.03 3.85z" style="fill:url(#e);fill-rule:nonzero;stroke:#511e1e;stroke-width:6px;stroke-linecap:butt;stroke-linejoin:miter;stroke-miterlimit:10" transform="translate(-283 -318)"/><g transform="translate(-283 -318)"><ellipse cx="729.97" cy="774.56" rx="61.13" ry="88.09" style="fill:#fff"/><ellipse cx="729.26" cy="774.56" rx="48.98" ry="73.15" style="fill:#1b1b1b"/><circle cx="691.65" cy="741.24" r="16.03" style="fill:#f9fbff"/><ellipse cx="889.33" cy="774.56" rx="61.13" ry="88.09" style="fill:#fff"/><ellipse cx="889.33" cy="774.56" rx="48.98" ry="73.15" style="fill:#1b1b1b"/><circle cx="853.41" cy="746.68" r="16.03" style="fill:#f9fbff"/></g><path d="m885.64 1248.72-134.17 52.33c-15.57 6.07-32.7-3.59-35.79-20.01-15.06-80.03 28.71-162.95 107.09-193.52 88.43-34.49 189.59 9.89 224.08 98.33 34.49 88.43-9.89 189.59-98.33 224.08-62.38 24.33-132.62 10.01-180.52-34.34-12.15-11.25-11.03-30.81 2.24-40.71l115.41-86.16z" style="fill:#fd2b27;fill-rule:nonzero;stroke:#511e1e;stroke-width:6px;stroke-linecap:butt;stroke-miterlimit:4" transform="translate(-283 -318)"/></g></g><path d="M.073 0v-.728h.466v.11H.204v.219h.302v.108H.204V0z" style="fill:#fff;fill-rule:nonzero" transform="matrix(100 0 0 100 157.76 477.744)"/><path d="M.067-.728h.127V0H.067z" style="fill:#fff;fill-rule:nonzero" transform="matrix(100 0 0 100 216.56 477.744)"/><path d="M.22.011a.2.2 0 0 1-.093-.018.15.15 0 0 1-.066-.056.16.16 0 0 1-.024-.09q0-.061.03-.096a.17.17 0 0 1 .077-.049.6.6 0 0 1 .101-.021 1 1 0 0 0 .103-.015Q.38-.34.38-.368v-.003q0-.04-.025-.062-.024-.022-.07-.022a.13.13 0 0 0-.077.021.1.1 0 0 0-.038.048L.053-.41A.18.18 0 0 1 .14-.517a.3.3 0 0 1 .144-.036q.039 0 .078.009a.2.2 0 0 1 .072.031q.033.021.053.057t.02.091V0H.385v-.075H.38a.16.16 0 0 1-.057.06.2.2 0 0 1-.103.026m.032-.094a.13.13 0 0 0 .094-.034.1.1 0 0 0 .035-.079V-.26a.1.1 0 0 1-.031.012L.302-.24.26-.233a.2.2 0 0 0-.071.023q-.03.018-.029.055 0 .035.026.053a.1.1 0 0 0 .066.019" style="fill:#fff;fill-rule:nonzero" transform="matrix(100 0 0 100 242.76 477.744)"/><path d="M.274.011a.28.28 0 0 1-.155-.04.17.17 0 0 1-.076-.115l.119-.022q.021.08.114.08a.13.13 0 0 0 .075-.019q.027-.02.027-.046 0-.047-.073-.063l-.094-.02Q.058-.267.058-.387a.14.14 0 0 1 .028-.088.2.2 0 0 1 .078-.057.3.3 0 0 1 .114-.021q.093 0 .147.039.054.037.071.102L.382-.39a.1.1 0 0 0-.033-.048.1.1 0 0 0-.069-.02.12.12 0 0 0-.068.018q-.027.018-.027.045 0 .024.018.04.018.015.06.024l.092.02q.153.033.153.147 0 .052-.029.092a.2.2 0 0 1-.083.061.3.3 0 0 1-.122.022" style="fill:#fff;fill-rule:nonzero" transform="matrix(100 0 0 100 300.16 477.744)"/><path d="M.194-.32V0H.067v-.728h.125v.283a.17.17 0 0 1 .166-.108q.084 0 .135.054t.052.152V0H.417v-.328a.12.12 0 0 0-.028-.086.1.1 0 0 0-.078-.031.11.11 0 0 0-.084.033.13.13 0 0 0-.033.092" style="fill:#fff;fill-rule:nonzero" transform="matrix(100 0 0 100 355.06 477.744)"/><path d="M.222 0 .019-.546h.136l.099.297.023.073.018.073.018-.073.021-.073.1-.297h.134L.364 0z" style="fill:#fff;fill-rule:nonzero" transform="matrix(72 0 0 72 434.238 478.052)"/><path d="M.067 0v-.546h.127V0zm.064-.623a.07.07 0 0 1-.052-.02.07.07 0 0 1-.022-.05q0-.029.022-.049a.07.07 0 0 1 .052-.02q.031 0 .052.02.022.02.022.049a.07.07 0 0 1-.022.05.07.07 0 0 1-.052.02" style="fill:#fff;fill-rule:nonzero" transform="matrix(72 0 0 72 476.502 478.052)"/><path d="M.22.011a.2.2 0 0 1-.093-.018.15.15 0 0 1-.066-.056.16.16 0 0 1-.024-.09q0-.061.03-.096a.17.17 0 0 1 .077-.049.6.6 0 0 1 .101-.021 1 1 0 0 0 .103-.015Q.38-.34.38-.368v-.003q0-.04-.025-.062-.024-.022-.07-.022a.13.13 0 0 0-.077.021.1.1 0 0 0-.038.048L.053-.41A.18.18 0 0 1 .14-.517a.3.3 0 0 1 .144-.036q.039 0 .078.009a.2.2 0 0 1 .072.031q.033.021.053.057t.02.091V0H.385v-.075H.38a.16.16 0 0 1-.057.06.2.2 0 0 1-.103.026m.032-.094a.13.13 0 0 0 .094-.034.1.1 0 0 0 .035-.079V-.26a.1.1 0 0 1-.031.012L.302-.24.26-.233a.2.2 0 0 0-.071.023q-.03.018-.029.055 0 .035.026.053a.1.1 0 0 0 .066.019" style="fill:#fff;fill-rule:nonzero" transform="matrix(72 0 0 72 495.366 478.052)"/><path d="M.073 0v-.728h.279q.078 0 .13.025a.2.2 0 0 1 .078.067.2.2 0 0 1 .026.097q0 .068-.037.105a.18.18 0 0 1-.09.05v.008a.14.14 0 0 1 .074.023.16.16 0 0 1 .059.061.2.2 0 0 1 .023.094.2.2 0 0 1-.027.101.2.2 0 0 1-.083.071A.3.3 0 0 1 .367 0zm.131-.109h.142q.072 0 .104-.028a.1.1 0 0 0 .032-.071.1.1 0 0 0-.035-.082.14.14 0 0 0-.096-.033H.204zm0-.308h.131q.053 0 .086-.029a.1.1 0 0 0 .035-.076.1.1 0 0 0-.03-.07Q.396-.619.338-.619H.204z" style="fill:#fff;fill-rule:nonzero" transform="matrix(72 0 0 72 556.062 478.052)"/><path d="M.067 0v-.546H.19v.091h.006a.14.14 0 0 1 .135-.098q.024 0 .046.003v.117L.352-.437.317-.439a.13.13 0 0 0-.088.032.12.12 0 0 0-.035.086V0z" style="fill:#fff;fill-rule:nonzero" transform="matrix(72 0 0 72 603.51 478.052)"/><path d="M.304.011a.26.26 0 0 1-.138-.036.23.23 0 0 1-.091-.098.3.3 0 0 1-.032-.147q0-.085.032-.148a.23.23 0 0 1 .091-.099.26.26 0 0 1 .138-.036q.08 0 .139.036a.23.23 0 0 1 .09.099.3.3 0 0 1 .032.148.3.3 0 0 1-.032.147.23.23 0 0 1-.09.098.26.26 0 0 1-.139.036m0-.103q.045 0 .074-.024A.15.15 0 0 0 .422-.18a.3.3 0 0 0 .015-.091.3.3 0 0 0-.015-.09.15.15 0 0 0-.044-.065.1.1 0 0 0-.074-.024.1.1 0 0 0-.073.024.14.14 0 0 0-.043.065.3.3 0 0 0-.015.09q0 .05.015.091a.14.14 0 0 0 .043.064.1.1 0 0 0 .073.024" style="fill:#fff;fill-rule:nonzero" transform="matrix(72 0 0 72 630.51 478.052)"/><path d="M.184 0 .021-.546h.134l.054.214.023.097.024.115q.012-.061.025-.114l.024-.098.055-.214h.121l.054.214.023.097q.013.053.025.115.01-.061.023-.114l.023-.098.054-.214h.135L.655 0H.526L.462-.223.441-.308.419-.4l-.021.093-.022.084L.313 0z" style="fill:#fff;fill-rule:nonzero" transform="matrix(72 0 0 72 673.278 478.052)"/><path d="M.274.011a.28.28 0 0 1-.155-.04.17.17 0 0 1-.076-.115l.119-.022q.021.08.114.08a.13.13 0 0 0 .075-.019q.027-.02.027-.046 0-.047-.073-.063l-.094-.02Q.058-.267.058-.387a.14.14 0 0 1 .028-.088.2.2 0 0 1 .078-.057.3.3 0 0 1 .114-.021q.093 0 .147.039.054.037.071.102L.382-.39a.1.1 0 0 0-.033-.048.1.1 0 0 0-.069-.02.12.12 0 0 0-.068.018q-.027.018-.027.045 0 .024.018.04.018.015.06.024l.092.02q.153.033.153.147 0 .052-.029.092a.2.2 0 0 1-.083.061.3.3 0 0 1-.122.022" style="fill:#fff;fill-rule:nonzero" transform="matrix(72 0 0 72 733.686 478.052)"/><path d="M.309.011a.3.3 0 0 1-.142-.035.23.23 0 0 1-.092-.097.3.3 0 0 1-.032-.149q0-.084.031-.147a.24.24 0 0 1 .09-.1A.25.25 0 0 1 .3-.553q.067 0 .123.029a.2.2 0 0 1 .092.09.3.3 0 0 1 .035.157v.04H.17a.16.16 0 0 0 .04.11.14.14 0 0 0 .1.039.14.14 0 0 0 .072-.018.1.1 0 0 0 .043-.053l.117.024a.2.2 0 0 1-.081.106.27.27 0 0 1-.152.04M.17-.324h.256a.16.16 0 0 0-.037-.093.11.11 0 0 0-.088-.036.12.12 0 0 0-.092.037.15.15 0 0 0-.039.092" style="fill:#fff;fill-rule:nonzero" transform="matrix(72 0 0 72 773.214 478.052)"/><path d="M.067 0v-.546H.19v.091h.006a.14.14 0 0 1 .135-.098q.024 0 .046.003v.117L.352-.437.317-.439a.13.13 0 0 0-.088.032.12.12 0 0 0-.035.086V0z" style="fill:#fff;fill-rule:nonzero" transform="matrix(72 0 0 72 815.766 478.052)"/><path d="m.371-.85.125.03a1 1 0 0 1-.038.109h.489v.115H.409a2 2 0 0 1-.054.102 1 1 0 0 1-.063.096v.486H.171v-.35a1 1 0 0 1-.089.071L.054-.25Q.037-.284.023-.306a.6.6 0 0 0 .142-.127q.062-.076.108-.163H.055v-.115h.271l.025-.07zm.214.297h.121v.166h.2v.111h-.2v.229h.238v.111H.343v-.111h.242v-.229H.381v-.111h.204z" style="fill:#fff;fill-rule:nonzero" transform="matrix(104 0 0 104 162.667 331.05)"/><path d="M.048-.071Q.09-.082.145-.099l.119-.035.124-.039.019.099-.173.061-.162.056zm.659-.707.07-.062.044.027.046.032q.022.015.036.028l-.072.07L.774-.73zm-.633.365L.065-.445.051-.486.036-.524a.1.1 0 0 0 .03-.019l.03-.039.035-.057a1 1 0 0 0 .092-.209l.112.054a1.3 1.3 0 0 1-.15.259L.27-.541q.032-.05.059-.106l.097.061a1.7 1.7 0 0 1-.189.269l.158-.026-.003.1-.237.049a.4.4 0 0 0-.074.025L.072-.2.058-.24Q.051-.26.044-.274a.1.1 0 0 0 .039-.021.4.4 0 0 0 .041-.044l.033-.038.045-.061-.069.01Q.108-.424.095-.42zm.788.062.101.045a1 1 0 0 1-.177.197.2.2 0 0 0 .034.06q.018.022.037.022.013 0 .022-.023A.4.4 0 0 0 .89-.133a.342.342 0 0 0 .084.066.4.4 0 0 1-.024.096.1.1 0 0 1-.042.047.13.13 0 0 1-.065.013.12.12 0 0 1-.086-.035.3.3 0 0 1-.068-.094 1 1 0 0 1-.242.116.4.4 0 0 0-.072-.1 1 1 0 0 0 .143-.052 1 1 0 0 0 .131-.069 1.4 1.4 0 0 1-.041-.184L.43-.296.41-.403l.184-.033-.01-.096-.133.021-.019-.108.145-.022a4 4 0 0 1-.006-.212h.12q-.001.098.003.194l.215-.033.02.105-.228.036.009.094.225-.041.02.104-.231.043.013.068.013.062a.6.6 0 0 0 .112-.13" style="fill:#fff;fill-rule:nonzero" transform="matrix(104 0 0 104 266.667 331.05)"/><path d="m.074-.639.085.011a.8.8 0 0 1-.017.19.4.4 0 0 1-.027.083L.031-.391a.598.598 0 0 0 .038-.16 1 1 0 0 0 .005-.088m.25-.042.088.035-.037.109a1 1 0 0 1-.034.095L.279-.469l-.003.09-.008.089.032.037.041.05.039.049.025.031-.081.08-.036-.059Q.266-.136.243-.169a.523.523 0 0 1-.139.241.4.4 0 0 0-.076-.078.5.5 0 0 0 .1-.151.8.8 0 0 0 .041-.17 2 2 0 0 0 .009-.174v-.336h.101v.36Q.292-.52.304-.578q.013-.057.02-.103m.2-.155h.11l.005.05.006.049.281-.027.015.098-.093.009.097.036a.6.6 0 0 1-.175.148.12.12 0 0 0 .075.033q.017 0 .024-.016A.2.2 0 0 0 .88-.514q.017.015.039.027.023.012.044.019a.3.3 0 0 1-.023.082.08.08 0 0 1-.039.04.2.2 0 0 1-.062.011.2.2 0 0 1-.091-.023.3.3 0 0 1-.079-.063q-.052.023-.106.042a1 1 0 0 1-.108.033.2.2 0 0 0-.019-.031L.411-.413.387-.442A1 1 0 0 0 .61-.506L.583-.565.56-.629l-.138.014-.016-.099.131-.013L.529-.78zm.147.197q.017.047.038.085a1 1 0 0 0 .07-.048.3.3 0 0 0 .056-.054zm-.29.324h.565v.101H.805v.164q0 .02.003.025t.014.005h.035q.011 0 .016-.016a.4.4 0 0 0 .005-.071.2.2 0 0 0 .047.023l.052.017Q.97.014.946.044T.871.073H.798A.2.2 0 0 1 .729.061.06.06 0 0 1 .696.024a.2.2 0 0 1-.009-.073v-.165H.626a.5.5 0 0 1-.027.132.24.24 0 0 1-.069.1.4.4 0 0 1-.135.072.2.2 0 0 0-.029-.054.2.2 0 0 0-.039-.049.3.3 0 0 0 .106-.047.16.16 0 0 0 .053-.065.3.3 0 0 0 .021-.089H.381z" style="fill:#fff;fill-rule:nonzero" transform="matrix(104 0 0 104 370.667 331.05)"/><path d="m.116-.295.08-.073q.031.015.067.036.035.02.067.043a.4.4 0 0 1 .052.041l-.085.082a.3.3 0 0 0-.049-.042Q.218-.231.182-.254zm.005-.506h.6l.022-.004.096.005q-.001.078-.005.162-.005.084-.013.161h.122v.104H.797l.099.072a2 2 0 0 1-.183.131.7.7 0 0 0 .243.118.537.537 0 0 0-.08.106.7.7 0 0 1-.318-.22v.143a.14.14 0 0 1-.012.066Q.536.065.504.077a.3.3 0 0 1-.073.014 1 1 0 0 1-.098.002.62.62 0 0 0-.041-.103l.073.003.048-.001q.022 0 .022-.018V-.1L.27-.028.118.035.052-.073Q.1-.089.162-.112l.132-.049.141-.054v-.158H.061v-.104h.633l.003-.054H.154v-.107h.549l.002-.053H.121zm.437.428v.021a1 1 0 0 0 .036.057q.019.027.041.053A1.4 1.4 0 0 0 .79-.373z" style="fill:#fff;fill-rule:nonzero" transform="matrix(104 0 0 104 474.667 331.05)"/><defs><linearGradient id="b" x1="0" x2="1" y1="0" y2="0" gradientTransform="rotate(146.618 640.199 469.133)scale(166.85857)" gradientUnits="userSpaceOnUse"><stop offset="0" style="stop-color:#e6002c;stop-opacity:1"/><stop offset="1" style="stop-color:#e4052a;stop-opacity:1"/></linearGradient><linearGradient id="c" x1="0" x2="1" y1="0" y2="0" gradientTransform="rotate(147.24 652.704 518.156)scale(169.9659)" gradientUnits="userSpaceOnUse"><stop offset="0" style="stop-color:#e6002c;stop-opacity:1"/><stop offset="1" style="stop-color:#e4052a;stop-opacity:1"/></linearGradient><linearGradient id="d" x1="0" x2="1" y1="0" y2="0" gradientTransform="translate(721.53 647.68)scale(143.55)" gradientUnits="userSpaceOnUse"><stop offset="0" style="stop-color:#fd2b27;stop-opacity:1"/><stop offset="1" style="stop-color:#fbb03b;stop-opacity:1"/></linearGradient><linearGradient id="e" x1="0" x2="1" y1="0" y2="0" gradientTransform="rotate(-74.005 186670.354 2883.193)scale(75486.37564)" gradientUnits="userSpaceOnUse"><stop offset="0" style="stop-color:#fd2b27;stop-opacity:1"/><stop offset="1" style="stop-color:#fbb03b;stop-opacity:1"/></linearGradient></defs></svg>